<svg xmlns="http://www.w3.org/2000/svg" width="1024" height="369" viewBox="-0.677 -0.677 66.454 23.919"><path d="M0 .082h1.485v9.544c1.03-1.818 2.757-3.241 5.575-3.241 3.909 0 6.181 2.666 6.181 6.362v9.454h-1.485V13.02c0-3.182-1.787-5.272-4.908-5.272-3.029 0-5.363 2.303-5.363 5.514v8.939H0M27.78 13.747c-.211-3.121-2-5.999-5.545-5.999-3.06 0-5.423 2.575-5.696 5.999H27.78zm-12.816.758v-.06c0-4.485 3.151-8.06 7.332-8.06 4.333 0 7.09 3.515 7.09 8.09 0 .272 0 .363-.03.606H16.539c.273 3.847 3.03 6.09 6.06 6.09 2.393 0 4.03-1.061 5.302-2.424l1.03.909c-1.575 1.696-3.424 2.909-6.392 2.909-4.06 0-7.575-3.243-7.575-8.06M31.531 22.201h1.485V6.748h-1.485v15.453zM35.864 6.748h1.485v2.878c1.03-1.818 2.757-3.241 5.575-3.241 3.908 0 6.181 2.666 6.181 6.362v9.454H47.62V13.02c0-3.182-1.788-5.272-4.909-5.272-3.03 0-5.362 2.303-5.362 5.514v8.939h-1.485M63.494 13.747c-.213-3.121-2-5.999-5.545-5.999-3.06 0-5.424 2.575-5.697 5.999h11.242zm-12.817.758v-.06c0-4.485 3.15-8.06 7.332-8.06 4.334 0 7.091 3.515 7.091 8.09 0 .272 0 .363-.03.606H52.254c.272 3.847 3.03 6.09 6.06 6.09 2.393 0 4.03-1.061 5.302-2.424l1.03.909c-1.575 1.696-3.424 2.909-6.394 2.909-4.06 0-7.573-3.243-7.573-8.06M32.189 2.546a1.273 1.273 0 1 0 0-2.547 1.273 1.273 0 0 0 0 2.547" style="fill:#1a255b;fill-opacity:1;fill-rule:nonzero;stroke:none"/></svg>